<svg xmlns="http://www.w3.org/2000/svg" viewBox="0 0 128 160" x="0px" y="0px"><title>person, anonymous, male, people, avatar, hacker, suspect</title><g data-name="Layer 3"><path d="M37.07,122.87c2.56.43,5.25.79,8.04,1.09l0-.05A175.459,175.459,0,0,0,64,124.958a175.586,175.586,0,0,0,18.889-1.046l0,.048c2.79-.3,5.48-.66,8.04-1.09,1.34-3.05,3.79-14.1,3.44-19.66-.11-1.65-1.11-2.65-5.41-3.67,0,0,3.33-.79,4.03-1.92.7-1.1.16-3.13-2.93-5.93-1.737-1.585-4.15-3.145-11.409-5.822l-.115-.34-.13-.377c-1-3.5-3.01-3.8-4.114-3.671a11.929,11.929,0,0,0-2.8.823,18.986,18.986,0,0,1-7.48,1.489l-.008,0-.008,0a18.986,18.986,0,0,1-7.48-1.489,11.929,11.929,0,0,0-2.8-.823c-1.1-.131-3.112.173-4.114,3.671l-.13.377-.115.34c-7.259,2.677-9.672,4.237-11.409,5.822-3.09,2.8-3.63,4.83-2.93,5.93.7,1.13,4.03,1.92,4.03,1.92-4.3,1.02-5.3,2.02-5.41,3.67C33.28,108.77,35.73,119.82,37.07,122.87Zm14.288-36.7.144-.423c.7-2.432,1.655-2.321,1.972-2.281a10.383,10.383,0,0,1,2.328.7,20.991,20.991,0,0,0,8.19,1.62l.008,0,.008,0a21,21,0,0,0,8.19-1.62,10.383,10.383,0,0,1,2.328-.7c.317-.04,1.275-.151,1.972,2.281l.144.423c3.17,9.344,6.438,19.015,5.378,35.835A175.217,175.217,0,0,1,64,122.958a175.045,175.045,0,0,1-18.023-.951C44.92,105.187,48.188,95.515,51.358,86.171Z"/><path d="M16.67,113.39a59.543,59.543,0,0,1,5.61-10.09,15.7,15.7,0,0,1,5.63-5.33l6.94-4.35c-1.56,2.29-1.18,3.77-.69,4.54a4.128,4.128,0,0,0,1.67,1.31c-1.95.78-3.08,1.84-3.2,3.68-.34,5.36,1.87,15.74,3.29,19.52-8.03-1.37-14.6-3.27-18.21-5.4A3.034,3.034,0,0,1,16.67,113.39Z"/><path d="M95.832,102.98c-.12-1.84-1.25-2.9-3.2-3.68a4.128,4.128,0,0,0,1.67-1.31c.49-.77.87-2.25-.69-4.54,0,0,4.776,3.519,6.478,4.52a18.448,18.448,0,0,1,5.63,5.33,59.543,59.543,0,0,1,5.61,10.09,3.034,3.034,0,0,1-1.04,3.88c-3.61,2.13-9.718,3.86-17.748,5.23C93.962,118.72,96.172,108.34,95.832,102.98Z"/></g><g data-name="Layer 2"><path d="M42.821,47.123A9.676,9.676,0,1,0,59.383,49.05c1.547.06,3.093.1,4.617.1s3.07-.04,4.617-.1A9.658,9.658,0,1,0,85.18,47.124c11.438-2.31,19.555-6.31,20.407-10.148a3.265,3.265,0,0,0-.661-2.788c-1.54-1.976-5.567-3.234-11.13-3.5C91.573,20.074,85.028,7.056,76.9,3.178a10.7,10.7,0,0,0-10.126.19,5.962,5.962,0,0,1-5.557,0A10.7,10.7,0,0,0,51.1,3.178c-8.124,3.878-14.668,16.9-16.891,27.514-5.552.258-9.589,1.517-11.131,3.5a3.267,3.267,0,0,0-.661,2.789C23.265,40.814,31.383,44.814,42.821,47.123Z"/></g><text x="0" y="143" fill="#000000" font-size="5px" font-weight="bold" font-family="'Helvetica Neue', Helvetica, Arial-Unicode, Arial, Sans-serif">Created by Victoruler</text><text x="0" y="148" fill="#000000" font-size="5px" font-weight="bold" font-family="'Helvetica Neue', Helvetica, Arial-Unicode, Arial, Sans-serif">from the Noun Project</text></svg>